<svg class="icon" viewBox="0 0 1024 1024" xmlns="http://www.w3.org/2000/svg" width="200" height="200"><defs><style/></defs><path d="M238.864 285.053a18.075 18.075 0 01-16.067-12.05l-60.25-148.619L50.078 66.142a18.075 18.075 0 0116.066-32.134l118.493 62.26a18.075 18.075 0 018.034 10.041l62.259 154.643a18.075 18.075 0 01-10.042 24.1zm596.481 494.055h-536.23a18.075 18.075 0 01-16.067-24.1l72.3-188.786 34.142 14.059-64.267 164.685h510.122z" fill="#494949"/><path d="M767.061 580.28H333.256L192.672 192.669H913.67a66.276 66.276 0 0166.276 84.351v4.017l-130.543 255.06a80.334 80.334 0 01-82.343 44.185zm-409.704-38.158H755.01c36.15 0 46.192 0 62.259-24.1l128.535-251.045a30.125 30.125 0 00-32.134-36.15H244.889zm443.846 449.871h-2.008a78.346 78.346 0 114.016-156.651 78.326 78.326 0 01-2.008 156.651zm0-120.5a42.175 42.175 0 00-42.175 42.175 42.175 42.175 0 0042.175 42.175 44.184 44.184 0 0030.125-12.05 42.175 42.175 0 00-28.117-72.3zm-562.34 120.5h-2.008a78.326 78.326 0 01-52.217-134.56 76.317 76.317 0 0156.234-22.091 78.326 78.326 0 01-2.008 156.651zm0-120.5a42.175 42.175 0 00-42.175 42.175 42.175 42.175 0 0042.176 42.175 44.184 44.184 0 0030.125-12.05 42.175 42.175 0 00-28.117-72.3z" fill="#494949"/></svg>